<svg xmlns="http://www.w3.org/2000/svg" width="24" height="24" viewBox="0 0 24 24" fill="none" stroke="#eeeeee" stroke-width="1.5" stroke-linecap="round" stroke-linejoin="round">
    <line x1="3" y1="12.5" x2="22" y2="12.5"/>
    <line x1="12.5" y1="3" x2="12.5" y2="22"/>
    <line x1="9" y1="9" x2="16" y2="16"/>
    <line x1="16" y1="9" x2="9" y2="16"/>

    <line x1="6" y1="12.5" x2="4" y2="10.5"/>
    <line x1="6" y1="12.5" x2="4" y2="14.5"/>
    <line x1="12.5" y1="6" x2="10.5" y2="4"/>
    <line x1="12.5" y1="6" x2="14.5" y2="4"/>
    <line x1="19" y1="12.5" x2="21" y2="10.5"/>
    <line x1="19" y1="12.5" x2="21" y2="14.5"/>
    <line x1="12.5" y1="19" x2="10.5" y2="21"/>
    <line x1="12.5" y1="19" x2="14.5" y2="21"/>

    <line x1="16" y1="9" x2="16" y2="7"/>
    <line x1="16" y1="9" x2="18" y2 ="9"/>
    <line x1="9" y1="16" x2="7" y2="16"/>
    <line x1="9" y1="16" x2="9" y2="18"/>
    <line x1="9" y1="9" x2="7" y2="9"/>
    <line x1="9" y1="9" x2="9" y2="7"/>
    <line x1="16" y1="16" x2="18" y2="16"/>
    <line x1="16" y1="16" x2="16" y2="18"/>

</svg>